:SAMPLES-PER-SECOND 30
:FULLY-SPECIFIED
:DEGREES
92
root  28.4781 38.0976 1.10195 -22.8969 78.0209 -15.5779
RightUpLeg  17.4346 -8.67347 -3.44612
RightLeg  24.0602 4.15544 1.78139
RightFoot  -21.0802 -0.0663189 0.871486
RightToes  -2.9104e-010 0 -3.6325e-017
Spine  3.10423 2.26369 11.6709
Spine1  14.8595 4.29302 -4.20736
HEad  -13.1958 9.11597 -4.66242
LeftShoulder1  8.53708 -12.3585 -46.9595
LeftArm  -11.6391 34.725 -31.0326
LeftForeArm  27.036 -6.77307 -4.35897
LeftHand  -0.244104 0.0205437 5.32207
RightShoulder  5.17741 8.94424 35.6206
RightArm  9.0025 -4.39765 40.2292
RightForeArm  1.47698 30.0085 6.41297
RightHand  -1.21651 3.82761 -15.4992
LeftUpLeg  -16.7814 7.14178 7.9509
LeftLeg  -3.52236 23.5658 -5.53888
LeftFoot  -2.45074 0.203204 -2.61501
LeftToes  1.09107e-011 -5.80176e-011 5.60941e-012
93
root  30.2719 37.7952 0.953702 -18.588 78.1657 -11.2115
RightUpLeg  18.6064 -7.09518 -5.3151
RightLeg  27.0006 3.70221 1.8232
RightFoot  -20.521 0.247518 4.83867
RightToes  -2.9104e-010 0 -3.6325e-017
Spine  2.27216 3.14544 10.8281
Spine1  14.9492 5.26086 -4.68209
HEad  -12.3386 7.6063 -3.95205
LeftShoulder1  8.52419 -12.2946 -47.08
LeftArm  -11.2728 34.1775 -29.9358
LeftForeArm  27.508 -6.43529 -4.33483
LeftHand  -0.244104 0.0205437 5.32207
RightShoulder  5.34697 9.15998 36.2324
RightArm  8.44066 -6.01362 40.429
RightForeArm  -8.40953 24.41 5.97464
RightHand  -1.45356 4.93481 -16.5124
LeftUpLeg  -18.1978 7.30283 6.24198
LeftLeg  2.21017 20.7682 -3.68932
LeftFoot  5.15911 -0.160865 0.832768
LeftToes  1.09107e-011 -5.80176e-011 5.60941e-012
94
root  32.0012 37.5681 0.840111 -10.3414 79.3546 -3.01176
RightUpLeg  18.3457 -6.36302 -8.14551
RightLeg  31.8842 3.55233 2.13294
RightFoot  -17.3588 0.375775 9.728
RightToes  -2.9104e-010 0 -3.6325e-017
Spine  1.64422 3.89759 8.66039
Spine1  14.5072 5.93536 -4.84996
HEad  -11.6606 5.77721 -2.99367
LeftShoulder1  8.61181 -12.3812 -47.3094
LeftArm  -10.3637 32.382 -28.112
LeftForeArm  27.8618 -6.14184 -4.51357
LeftHand  -0.244104 0.0205437 5.32207
RightShoulder  5.7265 9.63943 37.5403
RightArm  5.2117 -6.74051 40.19
RightForeArm  -19.4291 16.8647 7.74457
RightHand  -1.75009 6.05567 -17.9242
LeftUpLeg  -20.039 10.3589 2.50714
LeftLeg  7.6233 13.8968 -2.20845
LeftFoot  13.2337 -0.826203 3.46032
LeftToes  1.09107e-011 -5.80176e-011 5.60941e-012
95
root  33.5263 37.4986 0.718764 1.07986 81.144 8.27963
RightUpLeg  15.5075 -5.96614 -10.5731
RightLeg  39.6192 2.30872 1.73169
RightFoot  -8.8291 -0.296543 11.9217
RightToes  -2.9104e-010 0 -3.6325e-017
Spine  2.03625 4.19429 6.86502
Spine1  13.4934 6.45691 -5.74101
HEad  -11.7352 3.54535 -2.3369
LeftShoulder1  8.74644 -12.6229 -47.3311
LeftArm  -9.64021 28.9648 -26.4102
LeftForeArm  27.9372 -6.12058 -4.75776
LeftHand  -0.244104 0.0205437 5.32207
RightShoulder  6.11372 10.1452 38.7208
RightArm  -3.12036 -6.20826 40.0839
RightForeArm  -22.6896 9.54295 10.5545
RightHand  -1.88343 6.41393 -18.6835
LeftUpLeg  -21.7184 15.3468 -2.84754
LeftLeg  12.3425 5.88214 -0.528387
LeftFoot  15.4698 -1.35707 5.32914
LeftToes  1.09107e-011 -5.80176e-011 5.60941e-012
96
root  34.7194 37.5446 0.571015 12.3667 82.1277 19.7916
RightUpLeg  10.3724 -4.74732 -11.6492
RightLeg  49.0019 0.367818 0.0887563
RightFoot  2.78648 -1.2338 10.1986
RightToes  -2.9104e-010 0 -3.6325e-017
Spine  4.07797 4.25493 6.58923
Spine1  12.5108 7.20596 -7.93865
HEad  -12.7856 1.4506 -2.55685
LeftShoulder1  8.84484 -12.9057 -47.0337
LeftArm  -10.375 24.3398 -25.7437
LeftForeArm  27.7208 -7.21216 -4.72694
LeftHand  -0.244104 0.0205437 5.32207
RightShoulder  6.32943 10.5068 39.0862
RightArm  -5.56876 -4.0845 40.8695
RightForeArm  -23.9765 6.2483 10.731
RightHand  -1.77471 6.14076 -18.0287
LeftUpLeg  -21.9527 17.4331 -6.45637
LeftLeg  15.9798 2.64903 0.897754
LeftFoot  12.3817 -1.54546 6.99306
LeftToes  1.09107e-011 -5.80176e-011 5.60941e-012
97
root  35.6098 37.6878 0.447488 17.7 81.9458 25.8305
RightUpLeg  4.69739 -2.88155 -11.5567
RightLeg  57.1905 -1.0469 -2.19936
RightFoot  9.90714 -1.38806 7.69263
RightToes  -2.9104e-010 0 -3.6325e-017
Spine  7.07761 4.20897 6.85399
Spine1  12.0494 7.87524 -10.0972
HEad  -14.2735 0.482703 -3.55875
LeftShoulder1  8.87385 -13.1207 -46.5673
LeftArm  -12.2522 19.7888 -26.1879
LeftForeArm  26.4085 -10.4675 -4.38422
LeftHand  -0.244104 0.0205437 5.32207
RightShoulder  6.41585 10.7852 38.8213
RightArm  -4.99527 0.240164 41.765
RightForeArm  -22.1005 6.13235 10.6944
RightHand  -1.59189 5.75315 -16.7767
LeftUpLeg  -20.3021 17.2738 -7.2655
LeftLeg  17.5109 2.99776 1.31231
LeftFoot  9.34064 -1.49287 7.84035
LeftToes  1.09107e-011 -5.80176e-011 5.60941e-012
98
root  36.4066 38.0093 0.372709 16.7113 81.7749 25.4615
RightUpLeg  -0.384141 -1.93736 -10.6021
RightLeg  62.221 -1.95036 -4.54909
RightFoot  9.42163 -1.02791 5.92859
RightToes  -2.9104e-010 0 -3.6325e-017
Spine  9.39331 3.84536 6.75976
Spine1  11.8932 7.79073 -10.581
HEad  -15.161 0.870116 -4.68669
LeftShoulder1  8.86868 -13.2807 -46.0838
LeftArm  -12.8551 16.2082 -27.0214
LeftForeArm  23.4473 -16.1412 -3.88107
LeftHand  -0.244104 0.0205437 5.32207
RightShoulder  6.47414 11.0732 38.3541
RightArm  -2.51691 6.54138 42.4143
RightForeArm  -21.6595 7.64168 11.0725
RightHand  -1.49836 5.5758 -16.068
LeftUpLeg  -17.6901 17.6795 -6.71058
LeftLeg  16.7026 2.83143 0.81234
LeftFoot  8.69625 -1.38888 7.55017
LeftToes  1.09107e-011 -5.80176e-011 5.60941e-012
99
root  37.1644 38.3992 0.325335 14.45 82.2752 23.1777
RightUpLeg  -4.95382 -2.35231 -9.31122
RightLeg  63.5012 -2.59794 -6.24216
RightFoot  4.89841 -0.694835 5.12087
RightToes  -2.9104e-010 0 -3.6325e-017
Spine  10.4182 3.23838 6.33966
Spine1  11.7803 7.01101 -9.79785
HEad  -14.6662 1.77988 -5.35685
LeftShoulder1  8.85182 -13.4348 -45.561
LeftArm  -12.8389 13.4696 -27.4697
LeftForeArm  22.7096 -23.4374 -3.86363
LeftHand  -0.244104 0.0205437 5.32207
RightShoulder  6.44521 11.2786 37.5698
RightArm  2.91972 13.3569 43.3844
RightForeArm  -26.2196 11.2485 11.007
RightHand  -1.50691 5.79453 -15.8517
LeftUpLeg  -15.2205 17.348 -5.52177
LeftLeg  14.8871 3.05893 -0.131815
LeftFoot  8.60005 -1.26089 6.86284
LeftToes  1.09107e-011 -5.80176e-011 5.60941e-012
100
root  37.8517 38.7223 0.278638 13.1182 82.9979 21.36
RightUpLeg  -9.10449 -3.16595 -8.25407
RightLeg  61.4997 -3.46071 -7.41158
RightFoot  1.065 -0.513542 4.78346
RightToes  -2.9104e-010 0 -3.6325e-017
Spine  10.8776 2.69229 6.12425
Spine1  11.6245 6.28829 -9.32787
HEad  -12.9949 2.30028 -5.50987
LeftShoulder1  8.78354 -13.5547 -44.8652
LeftArm  -14.4688 11.146 -27.3642
LeftForeArm  27.7909 -31.6537 -5.37108
LeftHand  -0.244104 0.0205437 5.32207
RightShoulder  6.23394 11.231 36.3134
RightArm  11.078 19.1762 44.8567
RightForeArm  -35.4481 18.0946 8.97347
RightHand  -1.49403 5.79956 -15.7145
LeftUpLeg  -13.3246 15.6497 -4.37351
LeftLeg  13.1312 4.42449 -1.12513
LeftFoot  7.86921 -1.16849 6.61429
LeftToes  1.09107e-011 -5.80176e-011 5.60941e-012
101
root  38.4861 38.991 0.232282 11.798 83.4194 19.5893
RightUpLeg  -12.317 -3.80219 -7.59056
RightLeg  56.8298 -4.89666 -8.44664
RightFoot  -0.897584 -0.36899 3.96802
RightToes  -2.9104e-010 0 -3.6325e-017
Spine  11.4999 2.36728 6.39589
Spine1  11.3997 6.05887 -9.6933
HEad  -11.1651 2.30122 -5.5084
LeftShoulder1  8.64067 -13.587 -44.0134
LeftArm  -15.8049 9.155 -27.0901
LeftForeArm  34.4895 -40.6453 -7.40211
LeftHand  -0.244104 0.0205437 5.32207
RightShoulder  5.91581 10.9522 34.9594
RightArm  13.6371 23.6721 45.7818
RightForeArm  -40.9513 27.0925 7.23209
RightHand  -1.4742 5.25854 -16.2653
LeftUpLeg  -11.5587 12.9038 -3.21245
LeftLeg  11.3256 6.83389 -2.23757
LeftFoot  7.44645 -1.15501 6.69842
LeftToes  1.09107e-011 -5.80176e-011 5.60941e-012
102
root  39.0873 39.2201 0.21221 10.2713 83.6441 17.7949
RightUpLeg  -14.0449 -4.24011 -7.32684
RightLeg  49.9248 -6.49592 -8.56743
RightFoot  -2.48738 -0.284088 3.4612
RightToes  -2.9104e-010 0 -3.6325e-017
Spine  12.3467 2.24614 6.70906
Spine1  11.2082 6.09597 -10.1345
HEad  -10.0747 1.99473 -5.70955
LeftShoulder1  8.48913 -13.5365 -43.3347
LeftArm  -17.1405 7.64832 -26.6522
LeftForeArm  40.4037 -49.8369 -10.233
LeftHand  -0.244104 0.0205437 5.32207
RightShoulder  5.61603 10.6239 33.804
RightArm  6.624 27.1533 45.5576
RightForeArm  -36.1929 37.4764 10.4067
RightHand  -1.54013 4.83853 -17.6347
LeftUpLeg  -9.92517 10.3165 -2.17901
LeftLeg  9.69114 9.17845 -3.28242
LeftFoot  7.49795 -1.15071 6.65182
LeftToes  1.09107e-011 -5.80176e-011 5.60941e-012
103
root  39.685 39.3849 0.233163 9.53879 84.0995 16.799
RightUpLeg  -14.3706 -4.3652 -7.40171
RightLeg  41.4998 -7.40738 -7.26244
RightFoot  -4.32461 -0.262868 3.81676
RightToes  -2.9104e-010 0 -3.6325e-017
Spine  13.0035 2.23746 6.72802
Spine1  11.2073 6.08359 -10.0699
HEad  -9.81473 1.45679 -6.15561
LeftShoulder1  8.40563 -13.4545 -43.1029
LeftArm  -18.1433 6.64323 -25.9763
LeftForeArm  44.5526 -58.3304 -14.2328
LeftHand  -0.244104 0.0205437 5.32207
RightShoulder  5.34947 10.3327 32.7187
RightArm  0.781684 29.6596 45.122
RightForeArm  -29.0626 49.37 15.0023
RightHand  -1.51491 4.27977 -18.3131
LeftUpLeg  -8.81586 8.76322 -1.5742
LeftLeg  8.97266 10.3822 -3.87751
LeftFoot  6.97732 -1.10211 6.56422
LeftToes  1.09107e-011 -5.80176e-011 5.60941e-012
104
root  40.3101 39.4996 0.294481 11.2428 85.0079 18.0902
RightUpLeg  -13.7708 -4.32575 -7.71817
RightLeg  32.4484 -6.99097 -5.02709
RightFoot  -5.66833 -0.256361 4.38672
RightToes  -2.9104e-010 0 -3.6325e-017
Spine  13.0619 2.24775 6.53163
Spine1  11.4493 5.98486 -9.75272
HEad  -9.7696 0.738955 -6.47935
LeftShoulder1  8.39308 -13.4154 -43.1398
LeftArm  -18.7652 6.13267 -25.2504
LeftForeArm  47.9586 -65.2564 -19.5268
LeftHand  -0.244104 0.0205437 5.32207
RightShoulder  5.13807 10.0937 31.8436
RightArm  -4.66365 31.5216 44.5779
RightForeArm  -17.8687 60.2347 21.8363
RightHand  -1.39959 3.51161 -18.3859
LeftUpLeg  -8.20474 7.71058 -1.41208
LeftLeg  8.9685 10.5844 -4.07865
LeftFoot  5.90918 -1.04807 6.6647
LeftToes  1.09107e-011 -5.80176e-011 5.60941e-012
105
root  40.9622 39.5927 0.401318 19.4718 86.2777 25.8016
RightUpLeg  -12.6551 -5.14887 -8.18937
RightLeg  23.7743 -4.35899 -2.35759
RightFoot  -5.16759 -0.296066 4.81235
RightToes  -2.9104e-010 0 -3.6325e-017
Spine  12.414 2.23795 6.1032
Spine1  11.8716 5.87092 -9.60109
HEad  -9.36853 -0.0346099 -6.29847
LeftShoulder1  8.42455 -13.4884 -43.1142
LeftArm  -19.2409 6.12033 -24.7319
LeftForeArm  51.7012 -70.0817 -25.5179
LeftHand  -0.244104 0.0205437 5.32207
RightShoulder  5.08021 10.0257 31.6035
RightArm  -8.94835 33.2407 43.1557
RightForeArm  -6.395 67.3487 29.6545
RightHand  -1.71264 4.47756 -20.136
LeftUpLeg  -7.78932 6.57307 -1.57707
LeftLeg  9.0229 10.2658 -4.18483
LeftFoot  5.0997 -1.00368 6.72356
LeftToes  1.09107e-011 -5.80176e-011 5.60941e-012
